<?xml version="1.0" encoding="utf-8"?>
<svg contentScriptType="text/ecmascript" xmlns:xlink="http://www.w3.org/1999/xlink" zoomAndPan="magnify" style="-webkit-print-color-adjust:exact; color-adjust:exact !important;" contentStyleType="text/css" viewBox="35.0 1.0 702.25 927.0" xmlns:cacoo="http://cacoo.com/" preserveAspectRatio="xMidYMin meet" xmlns="http://www.w3.org/2000/svg" version="1.1"><g><g transform="translate(50.0 618.0)"><path fill-opacity="1.0" fill="#ffffff" style="fill-rule: evenodd;" stroke-linejoin="round" d="M596.0000000000003 118.00000000000007 L0.0 118.00000000000007 L0.0 0.0 L596.0000000000003 0.0 L596.0000000000003 118.00000000000007z" stroke="#000000" stroke-width="1.0"/><g transform="translate(1.0 1.0)"><defs><clipPath id="id:BF303:0"><path d="M0 0 L594.0 0 L594.0 116.0 L0 116.0z"/></clipPath></defs><text font-size="12" clip-path="url(#id:BF303:0)" text-decoration="none" fill="#000000" font-family="Arial,Arial" font-style="normal" font-weight="normal"><tspan x="52.0" xml:space="preserve" y="62.0" textLength="490.0">8行分のスペース。ただし、行数が超過した場合はY方向のスケールを調整して超過分を表示</tspan></text></g></g><g transform="translate(50.0 781.0)"><defs><clipPath id="id:BF303:1"><path d="M0 0 L596.0 0 L596.0 132.0 L0 132.0z"/></clipPath></defs><text font-size="14" clip-path="url(#id:BF303:1)" text-decoration="none" fill="#000000" font-family="Arial,Arial" font-style="normal" font-weight="normal"><tspan x="2.0" xml:space="preserve" y="15.0" textLength="28.0">　　</tspan><tspan x="2.0" xml:space="preserve" y="40.0" textLength="196.0">ご本人・ご家族への説明・同意</tspan><tspan x="2.0" xml:space="preserve" y="65.0" textLength="238.0">　　　　　　　　　年　　月　　日　</tspan></text><text font-size="12" clip-path="url(#id:BF303:1)" text-decoration="none" fill="#000000" font-family="Arial,Arial" font-style="normal" font-weight="normal"><tspan x="2.0" xml:space="preserve" y="88.0" textLength="153.0">法人名（株）メルシーダイキ</tspan><tspan x="2.0" xml:space="preserve" y="111.0" textLength="454.0">住所：東京都大田区〜〜〜〜〜〜〜〜〜〜　　　　　TEL: 0.-3377-2901         FAX:   </tspan></text></g><g transform="translate(334.0 822.0)"><defs><clipPath id="id:BF303:2"><path d="M0 0 L194.0 0 L194.0 62.0 L0 62.0z"/></clipPath></defs><text font-size="13" clip-path="url(#id:BF303:2)" text-decoration="none" fill="#000000" font-family="Arial,Arial" font-style="normal" font-weight="normal"><tspan x="2.0" xml:space="preserve" y="14.0" textLength="52.0">同意署名</tspan></text><text font-size="13" clip-path="url(#id:BF303:2)" text-decoration="none" fill="#000000" font-family="Arial,Arial" font-style="normal" font-weight="normal"><tspan x="2.0" xml:space="preserve" y="33.0" textLength="65.0">並びに捺印</tspan><tspan x="2.0" xml:space="preserve" y="52.0" textLength="155.0">担当者（　何某たろう　）</tspan></text></g><path fill="none" d="M331.9852463596727 859.0 L637.0020920410531 859.0" stroke-width="2.0" stroke-linejoin="round" stroke="#000000"/><g transform="translate(50.0 618.0)"><path fill-opacity="1.0" fill="#ffffff" style="fill-rule: evenodd;" stroke-linejoin="round" d="M21.0 118.0 L0.0 118.0 L0.0 0.0 L21.0 0.0 L21.0 118.0z" stroke="#000000" stroke-width="1.0"/><g transform="translate(1.0 1.0)"><defs><clipPath id="id:BF303:3"><path d="M0 0 L19.0 0 L19.0 116.0 L0 116.0z"/></clipPath></defs><text font-size="12" clip-path="url(#id:BF303:3)" text-decoration="none" fill="#000000" font-family="Arial,Arial" font-style="normal" font-weight="normal"><tspan x="3.0" xml:space="preserve" y="48.0" textLength="12.0">留</tspan><tspan x="3.0" xml:space="preserve" y="62.0" textLength="12.0">意</tspan></text><text font-size="12" clip-path="url(#id:BF303:3)" text-decoration="none" fill="#000000" font-family="Arial,Arial" font-style="normal" font-weight="normal"><tspan x="3.0" xml:space="preserve" y="76.0" textLength="12.0">点</tspan></text></g></g><g transform="translate(50.0 294.0)"><path fill-opacity="1.0" fill="#ffffff" style="fill-rule: evenodd;" stroke-linejoin="round" d="M596.0000000000003 316.00000000000034 L0.0 316.00000000000034 L0.0 0.0 L596.0000000000003 0.0 L596.0000000000003 316.00000000000034z" stroke="#000000" stroke-width="1.0"/><g transform="translate(1.0 1.0)"><defs><clipPath id="id:BF303:4"><path d="M0 0 L594.0 0 L594.0 314.0 L0 314.0z"/></clipPath></defs><text font-size="12" clip-path="url(#id:BF303:4)" text-decoration="none" fill="#000000" font-family="Arial,Arial" font-style="normal" font-weight="normal"><tspan x="219.0" xml:space="preserve" y="161.0" textLength="156.0">福祉用具の内容（詳細省略）</tspan></text></g></g><g transform="translate(248.0 115.5)"><path fill-opacity="1.0" fill="#ffffff" style="fill-rule: evenodd;" stroke-linejoin="round" d="M398.00000000000045 165.00000000000043 L0.0 165.00000000000043 L0.0 0.0 L398.00000000000045 0.0 L398.00000000000045 165.00000000000043z" stroke="#000000" stroke-width="1.0"/><g transform="translate(1.0 1.0)"><defs><clipPath id="id:BF303:5"><path d="M0 0 L396.0 0 L396.0 163.0 L0 163.0z"/></clipPath></defs><text font-size="12" clip-path="url(#id:BF303:5)" text-decoration="none" fill="#000000" font-family="Arial,Arial" font-style="normal" font-weight="normal"><tspan x="138.0" xml:space="preserve" y="85.5" textLength="120.0">利用目標（詳細省略）</tspan></text></g></g><g transform="translate(50.0 115.5)"><path fill-opacity="1.0" fill="#ffffff" style="fill-rule: evenodd;" stroke-linejoin="round" d="M198.00000000000043 165.00000000000043 L0.0 165.00000000000043 L0.0 0.0 L198.00000000000043 0.0 L198.00000000000043 165.00000000000043z" stroke="#000000" stroke-width="1.0"/><g transform="translate(1.0 1.0)"><defs><clipPath id="id:BF303:6"><path d="M0 0 L196.0 0 L196.0 163.0 L0 163.0z"/></clipPath></defs><text font-size="12" clip-path="url(#id:BF303:6)" text-decoration="none" fill="#000000" font-family="Arial,Arial" font-style="normal" font-weight="normal"><tspan x="45.0" xml:space="preserve" y="85.5" textLength="106.0">ニーズ（詳細省略）</tspan></text></g></g><g transform="translate(593.0 816.0)"><defs><clipPath id="id:BF303:7"><path d="M0 0 L38.0 0 L38.0 37.0 L0 37.0z"/></clipPath></defs><text font-size="15" clip-path="url(#id:BF303:7)" text-decoration="none" fill="#999999" font-family="Arial,Arial" font-style="normal" font-weight="normal"><tspan x="11.0" xml:space="preserve" y="24.0" textLength="15.0">印</tspan></text></g><g transform="translate(599.25 821.0)"><path fill="none" d="M25.5 12.75 Q25.5 18.030969929999998 21.765779999999996 21.765397499999995 Q18.0313815 25.5 12.75 25.5 Q7.468822500000001 25.5 3.734411912999999 21.76558824 Q0.0 18.031177500000005 0.0 12.75 Q0.0 7.468822500000001 3.734411403000001 3.734411912999999 Q7.468822500000001 0.0 12.75 0.0 Q18.031471769999992 0.0 21.765779999999996 3.734411403000001 Q25.5 7.46873478 25.5 12.75 L25.5 12.75z" stroke-width="1.0" stroke-linejoin="round" stroke="#999999"/><g transform="translate(3.5302199649810793 4.060110225677487)"><defs><clipPath id="id:BF303:8"><path d="M0 0 L18.44159992218018 0 L18.44159992218018 17.262479782104485 L0 17.262479782104485z"/></clipPath></defs><text font-size="12" clip-path="url(#id:BF303:8)" text-decoration="none" fill="#000000" font-family="Arial,Arial" font-style="normal" font-weight="normal"/></g></g><g transform="translate(248.0 16.0)"><path fill-opacity="1.0" fill="#ffffff" style="fill-rule: evenodd;" stroke-linejoin="round" d="M185.9999999999999 29.000000000000007 L0.0 29.000000000000007 L0.0 0.0 L185.9999999999999 0.0 L185.9999999999999 29.000000000000007z" stroke="#000000" stroke-width="1.0"/><g transform="translate(1.0 1.0)"><defs><clipPath id="id:BF303:9"><path d="M0 0 L184.0 0 L184.0 27.0 L0 27.0z"/></clipPath></defs><text font-size="15" clip-path="url(#id:BF303:9)" text-decoration="none" fill="#000000" font-family="Arial,Arial" font-style="normal" font-weight="normal"><tspan x="9.0" xml:space="preserve" y="19.0" textLength="165.0">福祉用具サービス計画書</tspan></text></g></g><g transform="translate(54.5 57.5)"><defs><clipPath id="id:BF303:10"><path d="M0 0 L237.0 0 L237.0 46.5 L0 46.5z"/></clipPath></defs><text font-size="11" clip-path="url(#id:BF303:10)" text-decoration="underline" fill="#000000" font-family="Arial,Arial" font-style="normal" font-weight="normal"><tspan x="2.0" xml:space="preserve" y="12.0" textLength="83.0">利用者ID:  12345</tspan><tspan x="2.0" xml:space="preserve" y="29.0" textLength="61.0">ご利用者名: </tspan></text><text font-size="13" clip-path="url(#id:BF303:10)" text-decoration="underline" fill="#000000" font-family="Arial,Arial" font-style="normal" font-weight="normal"><tspan x="63.0" xml:space="preserve" y="29.0" textLength="91.0">富田林テツロー</tspan></text><text font-size="11" clip-path="url(#id:BF303:10)" text-decoration="underline" fill="#000000" font-family="Arial,Arial" font-style="normal" font-weight="normal"><tspan x="154.0" xml:space="preserve" y="29.0" textLength="68.0"> 様 年齢101歳</tspan><tspan x="2.0" xml:space="preserve" y="45.0" textLength="136.0">居宅名: テクノケアセンター</tspan></text></g><g transform="translate(298.0 69.0)"><defs><clipPath id="id:BF303:11"><path d="M0 0 L171.0 0 L171.0 46.5 L0 46.5z"/></clipPath></defs><text font-size="11" clip-path="url(#id:BF303:11)" text-decoration="underline" fill="#000000" font-family="Arial,Arial" font-style="normal" font-weight="normal"><tspan x="2.0" xml:space="preserve" y="12.0" textLength="161.0">性別:  男     要介護度: 要介護4     </tspan><tspan x="2.0" xml:space="preserve" y="26.0" textLength="137.0">ケアマネージャー: 浦野大吉</tspan></text></g><g transform="translate(475.0 46.0)"><defs><clipPath id="id:BF303:12"><path d="M0 0 L171.0 0 L171.0 69.5 L0 69.5z"/></clipPath></defs><text font-size="11" clip-path="url(#id:BF303:12)" text-decoration="underline" fill="#000000" font-family="Arial,Arial" font-style="normal" font-weight="normal"><tspan x="2.0" xml:space="preserve" y="12.0" textLength="111.0">契約番号:  12345678   </tspan><tspan x="2.0" xml:space="preserve" y="26.0" textLength="92.0">作成日:  H28/12/12</tspan><tspan x="2.0" xml:space="preserve" y="40.0" textLength="150.0">認定機関: H28/1/1〜H28/12/31</tspan></text><text font-size="11" clip-path="url(#id:BF303:12)" text-decoration="underline" fill="#000000" font-family="Arial,Arial" font-style="normal" font-weight="normal"><tspan x="2.0" xml:space="preserve" y="54.0" textLength="93.0">作成者: 何某たろう</tspan></text></g><g transform="translate(50.0 741.0)"><path fill-opacity="1.0" fill="#ffffff" style="fill-rule: evenodd;" stroke-linejoin="round" d="M596.0000000000005 58.00000000000002 L0.0 58.00000000000002 L0.0 0.0 L596.0000000000005 0.0 L596.0000000000005 58.00000000000002z" stroke="#000000" stroke-width="1.0"/><g transform="translate(1.0 1.0)"><defs><clipPath id="id:BF303:13"><path d="M0 0 L594.0 0 L594.0 56.0 L0 56.0z"/></clipPath></defs><text font-size="12" clip-path="url(#id:BF303:13)" text-decoration="none" fill="#000000" font-family="Arial,Arial" font-style="normal" font-weight="normal"><tspan x="2.0" xml:space="preserve" y="13.0" textLength="430.0">□ 私は、貸与の候補となる福祉用具の全国平均貸与価格等の説明を受けました。</tspan><tspan x="2.0" xml:space="preserve" y="30.0" textLength="454.0">□ 私は、貸与の候補となる機能や価格の異なる複数の福祉用具の提示を受けました。</tspan><tspan x="2.0" xml:space="preserve" y="47.0" textLength="561.0">□ 私は、福祉用具サービス計画の内容について説明を受け、内容に同意し、計画書の交付を受けました。</tspan></text></g></g><g transform="translate(527.25 730.0)"><path fill-opacity="1.0" fill="#ffffff" style="fill-rule: evenodd;" stroke-linejoin="round" d="M195.00000000000006 0.0 L195.00000000000006 31.0 L0.0 31.0 L0.0 22.045994977804007 L-27.0 23.0 L0.0 20.698976134541603 L0.0 0.0 L195.00000000000006 0.0 L195.00000000000006 0.0z" stroke="#000000" stroke-width="1.0"/><g transform="translate(1.8213000297546393 0.3450000286102295)"><defs><clipPath id="id:BF303:14"><path d="M0 0 L190.99080047607416 0 L190.99080047607416 30.237001419067383 L0 30.237001419067383z"/></clipPath></defs><text font-size="12" clip-path="url(#id:BF303:14)" text-decoration="none" fill="#000000" font-family="Arial,Arial" font-style="normal" font-weight="normal"><tspan x="2.0" xml:space="preserve" y="13.0" textLength="162.0">H30年4月以降に2行目と3行目</tspan></text><text font-size="12" clip-path="url(#id:BF303:14)" text-decoration="none" fill="#000000" font-family="Arial,Arial" font-style="normal" font-weight="normal"><tspan x="2.0" xml:space="preserve" y="27.0" textLength="150.0">1行目はH30年10月以降のみ</tspan></text></g></g></g></svg>